<?xml version="1.0" encoding="utf-8"?>
<?xml-stylesheet type="text/xsl" href="rss1.xsl"?>
<rss version="2.0" xmlns:atom="http://www.w3.org/2005/Atom" xmlns:content="http://purl.org/rss/1.0/modules/content/" xmlns:dc="http://purl.org/dc/elements/1.1/" xmlns:media="http://search.yahoo.com/mrss/">
<channel>
 <title>Getty</title>
 <link>http://www.gettyimg.com/</link>
 <atom:link href="http://www.gettyimg.com/" rel="self" type="application/rss+xml" />

 
                <item>
                <title><![CDATA[【UPSCALED】Tiësto &amp; Charli XCX - Hot In It [4K AI Upscale HEVC 10-bit / PCM 24-bit / DD+ Dolby Atmos]]]></title>
                <link><![CDATA[https://sharemania.us/threads/ti%C3%ABsto-charli-xcx-hot-in-it-4k-ai-upscale-hevc-10-bit-pcm-24-bit-dd-dolby-atmos.219713/]]></link>
                <description><![CDATA[<article>
<blockquote class="messageText SelectQuoteContainer ugc baseHtml">
<b><img src="https://images2.imgbox.com/c8/5d/8KaOKCfc_o.jpg" class="bbCodeImage LbImage" alt="[​IMG]" data-url="https://images2.imgbox.com/c8/5d/8KaOKCfc_o.jpg" style=""> <br>
<br>
Genre: <span style="color: #0059b3">Electronic, Pop</span> <br>
Style: <span style="color: #0059b3">Dance-pop, House</span> <br>
Year: <span style="color: #0059b3">2022</span> <br>
Video Source: <span style="color: #0059b3">Apple Music, thanks Brungor</span><br>
Audio Source: <span style="color: #0059b3">Qobuz &amp; Apple Music, thanks Yennefer &amp; BbbDdd345</span></b><br>
<br>
"<b>Hot In It</b>" is a song by Dutch DJ Tiësto and English singer Charli XCX, released on 30 June 2022 through Musical Freedom and Atlantic Records as the fourth single from Tiësto's seventh studio album <i>DRIVE</i>. It marks the pair's first direct collaboration, with Tiësto having previously remixed Charli's 2012 collaboration with Icona Pop, "I Love It", and her 2014 single "Break the Rules".<br>
<br>
Tiësto had been dying to work with Charli for years, but they couldn't come up with the right song. That is until Charli turned up the heat after he sent her the "Hot In It" demo. "The original was just a sample, low male vocal and it just didn't sound as good," Tiesto said. "And then she re-sang everything and it sounds incredible."<br>
Charli XCX first teased the song on her social media accounts in May 2022, sharing a snippet of the chorus in a video posted to her TikTok. Tiësto stated that he knew the song would be a "smash" when he first heard Charli's vocals on the recording, and also said that it was "amazing to see how everyone has been reacting to the message of the song".<br>
The song was nominated for dance song of the year at iHeartRadio music awards 2023.<br>
<br>
<b>Release Info</b><br>
The video track is upscaled to 4K with Topaz Video Enhance AI and converted to HEVC 10-bit.<br>
The PCM track is lossless (Qobuz Hi-Res 24-bit), synced with Adobe Audition.<br>
The Dolby Atmos track is lossy (Dolby Digital Plus), synced by muxing.<br>
The timed lyrics are synced and edited to match the music video.<br>
Enable the subtitles to see the lyrics.<br>
<br>
<div class="ToggleTriggerAnchor bbCodeSpoilerContainer">
<button type="button" class="button bbCodeSpoilerButton ToggleTrigger Tooltip JsOnly" data-target="> .SpoilerTarget"><span>Spoiler: <span class="SpoilerTitle">Media Info</span></span></button>
<div class="SpoilerTarget bbCodeSpoilerText">
<div class="bbCodeBlock bbCodeCode">
<div class="type">Code:</div>
<pre>General
Unique ID                      : 234191816471006656881792237080262496732 (0xB02FB405630185BE21AE0C1D7A1451DC)
Complete name                  : Tiësto &amp; Charli XCX - Hot In It.mkv
Format                         : Matroska
Format version                 : Version 4
File size                      : 206 MiB
Duration                       : 2 min 16 s
Overall bit rate               : 12.6 Mb/s
Encoded date                   : UTC 2023-04-23 18:25:05
Writing application            : mkvmerge v75.0.0 ('Goliath') 64-bit
Writing library                : libebml v1.4.4 + libmatroska v1.7.1

Video
ID                             : 1
Format                         : HEVC
Format/Info                    : High Efficiency Video Coding
Format profile                 : Main 10@L5@Main
Codec ID                       : V_MPEGH/ISO/HEVC
Duration                       : 2 min 16 s
Bit rate                       : 9 709 kb/s
Width                          : 3 840 pixels
Height                         : 1 608 pixels
Display aspect ratio           : 2.40:1
Frame rate mode                : Constant
Frame rate                     : 24.060 FPS
Original frame rate            : 23.976 (24000/1001) FPS
Color space                    : YUV
Chroma subsampling             : 4:2:0
Bit depth                      : 10 bits
Bits/(Pixel*Frame)             : 0.065
Stream size                    : 158 MiB (77%)
Writing library                : x265 3.5+1-f0c1022b6:[Windows][GCC 10.2.0][64 bit] 10bit
Encoding settings              : cpuid=1111039 / frame-threads=5 / numa-pools=32 / wpp / no-pmode / no-pme / no-psnr / no-ssim / log-level=2 / input-csp=1 / input-res=3840x1608 / interlace=0 / total-frames=0 / level-idc=0 / high-tier=1 / uhd-bd=0 / ref=4 / no-allow-non-conformance / no-repeat-headers / annexb / no-aud / no-eob / no-eos / no-hrd / info / hash=0 / no-temporal-layers / open-gop / min-keyint=24 / keyint=240 / gop-lookahead=0 / bframes=4 / b-adapt=2 / b-pyramid / bframe-bias=0 / rc-lookahead=25 / lookahead-slices=4 / scenecut=40 / no-hist-scenecut / radl=0 / no-splice / no-intra-refresh / ctu=64 / min-cu-size=8 / rect / no-amp / max-tu-size=32 / tu-inter-depth=1 / tu-intra-depth=1 / limit-tu=0 / rdoq-level=2 / dynamic-rd=0.00 / no-ssim-rd / signhide / no-tskip / nr-intra=0 / nr-inter=0 / no-constrained-intra / strong-intra-smoothing / max-merge=3 / limit-refs=3 / limit-modes / me=3 / subme=3 / merange=57 / temporal-mvp / no-frame-dup / no-hme / weightp / no-weightb / no-analyze-src-pics / deblock=0:0 / sao / no-sao-non-deblock / rd=4 / selective-sao=4 / no-early-skip / rskip / no-fast-intra / no-tskip-fast / no-cu-lossless / no-b-intra / no-splitrd-skip / rdpenalty=0 / psy-rd=2.00 / psy-rdoq=1.00 / no-rd-refine / no-lossless / cbqpoffs=0 / crqpoffs=0 / rc=crf / crf=22.0 / qcomp=0.60 / qpstep=4 / stats-write=0 / stats-read=0 / ipratio=1.40 / pbratio=1.30 / aq-mode=2 / aq-strength=1.00 / cutree / zone-count=0 / no-strict-cbr / qg-size=32 / no-rc-grain / qpmax=69 / qpmin=0 / no-const-vbv / sar=1 / overscan=0 / videoformat=5 / range=0 / colorprim=1 / transfer=1 / colormatrix=1 / chromaloc=0 / display-window=0 / cll=0,0 / min-luma=0 / max-luma=1023 / log2-max-poc-lsb=8 / vui-timing-info / vui-hrd-info / slices=1 / no-opt-qp-pps / no-opt-ref-list-length-pps / no-multi-pass-opt-rps / scenecut-bias=0.05 / no-opt-cu-delta-qp / no-aq-motion / no-sbrc / no-hdr10 / no-hdr10-opt / no-dhdr10-opt / no-idr-recovery-sei / analysis-reuse-level=0 / analysis-save-reuse-level=0 / analysis-load-reuse-level=0 / scale-factor=0 / refine-intra=0 / refine-inter=0 / refine-mv=1 / refine-ctu-distortion=0 / no-limit-sao / ctu-info=0 / no-lowpass-dct / refine-analysis-type=0 / copy-pic=1 / max-ausize-factor=1.0 / no-dynamic-refine / no-single-sei / no-hevc-aq / no-svt / no-field / qp-adaptation-range=1.00 / scenecut-aware-qp=0conformance-window-offsets / right=0 / bottom=0 / decoder-max-rate=0 / no-vbv-live-multi-pass / no-mcstf
Default                        : Yes
Forced                         : No
Color range                    : Limited
Color primaries                : BT.709
Transfer characteristics       : BT.709
Matrix coefficients            : BT.709

Audio #1
ID                             : 2
Format                         : PCM
Format settings                : Little / Signed
Codec ID                       : A_PCM/INT/LIT
Duration                       : 2 min 9 s
Bit rate mode                  : Constant
Bit rate                       : 2 304 kb/s
Channel(s)                     : 2 channels
Sampling rate                  : 48.0 kHz
Frame rate                     : 25.004 FPS (1920 SPF)
Bit depth                      : 24 bits
Stream size                    : 35.7 MiB (17%)
Title                          : Lossless 24-bit 48 kHz
Language                       : English
Default                        : Yes
Forced                         : No

Audio #2
ID                             : 3
Format                         : E-AC-3 JOC
Format/Info                    : Enhanced AC-3 with Joint Object Coding
Commercial name                : Dolby Digital Plus with Dolby Atmos
Codec ID                       : A_EAC3
Duration                       : 2 min 9 s
Bit rate mode                  : Constant
Bit rate                       : 768 kb/s
Channel(s)                     : 6 channels
Channel layout                 : L R C LFE Ls Rs
Sampling rate                  : 48.0 kHz
Frame rate                     : 31.250 FPS (1536 SPF)
Compression mode               : Lossy
Delay relative to video        : 163 ms
Stream size                    : 11.9 MiB (6%)
Title                          : Dolby Digital Plus with Dolby Atmos
Language                       : English
Service kind                   : Complete Main
Default                        : No
Forced                         : No
Complexity index               : 16
Number of dynamic objects      : 15
Bed channel count              : 1 channel
Bed channel configuration      : LFE

Text
ID                             : 4
Format                         : UTF-8
Codec ID                       : S_TEXT/UTF8
Codec ID/Info                  : UTF-8 Plain Text
Duration                       : 2 min 1 s
Bit rate                       : 123 b/s
Frame rate                     : 0.404 FPS
Count of elements              : 49
Stream size                    : 1.83 KiB (0%)
Title                          : Lyrics
Language                       : English
Default                        : No
Forced                         : No
</pre>
</div></div>
</div><br>
<div class="bbCodeBlock bbCodeVfcHH HiddenContent">
<div class="attribution type">Hidden Content:</div>
<blockquote>You must reply before you can see the hidden data contained here.</blockquote>
</div>
<div class="messageTextEndMarker">&nbsp;</div>
</blockquote>
</article>]]></description>
                <author><![CDATA[ADHDerby]]></author>
                </item>

                
                <item>
                <title><![CDATA[【HD Live Performances】WEB-RiP - Coachella 2023 - Week 2 - All 6 stages - WEB-DL VP9 1080p AAC2.0-ilya2129]]></title>
                <link><![CDATA[https://sharemania.us/threads/coachella-2023-week-2-all-6-stages-web-dl-vp9-1080p-aac2-0-ilya2129.219712/]]></link>
                <description><![CDATA[<article>
<blockquote class="messageText SelectQuoteContainer ugc baseHtml">
<div style="text-align: center"><img src="https://i.postimg.cc/g25FgVQt/coachellaposter.png" class="bbCodeImage LbImage" alt="[​IMG]" data-url="https://i.postimg.cc/g25FgVQt/coachellaposter.png" style=""><br>
<br>
<span style="text-decoration: underline"><span style="font-size: 15px"><b>Files are quickly blocked. I will not re-upload, so download faster!</b><br>
<br>
Coachella Stage - done<br>
Outdoor Theatre Stage (day 2,3) - done<br>
Mojave Stage - uploading...<br>
Sahara Stage - uploading...<br>
Yuma Stage - uploading...<br>
Gobi Stage - uploading...<br>
</span></span><br>
<br>
​</div>
<div class="bbCodeBlock bbCodeCode">
<div class="type">Code:</div>
<pre>General
Unique ID                                : 178465239612999932753097085471080096651 (0x864327A78BA824DFC0F84E6C3B38A38B)
Complete name                            : D:\Bad Bunny - Live @ Coachella 2023 WEB-DL VP9 1080p AAC2.0-ilya2129.mkv.mkv
Format                                   : Matroska
Format version                           : Version 4
File size                                : 1.98 GiB
Duration                                 : 1 h 52 min
Overall bit rate                         : 2 532 kb/s
Frame rate                               : 30.000 FPS
Encoded date                             : 2023-04-15 11:58:34 UTC
Writing application                      : mkvmerge v72.0.0 ('Minuano (Six-eight)') 64-bit
Writing library                          : libebml v1.4.4 + libmatroska v1.7.1

Video
ID                                       : 1
Format                                   : VP9
Codec ID                                 : V_VP9
Duration                                 : 1 h 52 min
Bit rate                                 : 2 401 kb/s
Width                                    : 1 920 pixels
Height                                   : 1 080 pixels
Display aspect ratio                     : 16:9
Frame rate mode                          : Constant
Frame rate                               : 30.000 FPS
Color space                              : YUV
Bits/(Pixel*Frame)                       : 0.039
Stream size                              : 1.88 GiB (95%)
Language                                 : English
Default                                  : Yes
Forced                                   : No
Color range                              : Limited
Color primaries                          : BT.709
Transfer characteristics                 : BT.709
Matrix coefficients                      : BT.709

Audio
ID                                       : 2
Format                                   : AAC LC
Format/Info                              : Advanced Audio Codec Low Complexity
Codec ID                                 : A_AAC-2
Duration                                 : 1 h 52 min
Bit rate                                 : 128 kb/s
Channel(s)                               : 2 channels
Channel layout                           : L R
Sampling rate                            : 44.1 kHz
Frame rate                               : 43.066 FPS (1024 SPF)
Compression mode                         : Lossy
Delay relative to video                  : 11 ms
Stream size                              : 103 MiB (5%)
Default                                  : Yes
Forced                                   : No

</pre>
</div><div style="text-align: center"><br>
<div class="bbCodeBlock bbCodeVfcHH HiddenContent">
<div class="attribution type">Hidden Content:</div>
<blockquote>You must reply before you can see the hidden data contained here.</blockquote>
</div></div>
<div class="messageTextEndMarker">&nbsp;</div>
</blockquote>
</article>]]></description>
                <author><![CDATA[ilya2129]]></author>
                </item>

                </channel></rss>